<svg height="512" viewBox="0 0 64 64" width="512" xmlns="http://www.w3.org/2000/svg"><path d="m9 22h-2a23.973 23.973 0 0 1 10.416-19.812l1.168 1.624a22.019 22.019 0 0 0 -9.584 18.188z" fill="#7fcac9"/><path d="m46.611 41.791-1.222-1.582c6.018-4.652 9.611-11.459 9.611-18.209h2c0 7.365-3.883 14.764-10.389 19.791z" fill="#7fcac9"/><path d="m3 41h58v20h-58z" fill="#e1462b"/><path d="m21 54h-.307l-3-8h-3.693v10h2v-8h.307l3 8h3.693v-10h-2z" fill="#fcf05a"/><path d="m40 54h-.323l-1.748-4.372a1 1 0 0 0 -1.858 0l-1.748 4.372h-.323v-8h-2v9a1 1 0 0 0 1 1h2a1 1 0 0 0 .929-.628l1.071-2.68 1.071 2.68a1 1 0 0 0 .929.628h2a1 1 0 0 0 1-1v-9h-2z" fill="#fcf05a"/><path d="m25 56h5v-2h-3v-2h3v-2h-3v-2h3v-2h-5z" fill="#fcf05a"/><path d="m50 48v-2h-5a1 1 0 0 0 -1 1v4a1 1 0 0 0 1 1h3v2h-4v2h5a1 1 0 0 0 1-1v-4a1 1 0 0 0 -1-1h-3v-2z" fill="#fcf05a"/><path d="m3 46h9v2h-9z" fill="#143441"/><path d="m3 54h9v2h-9z" fill="#143441"/><path d="m52 46h9v2h-9z" fill="#143441"/><path d="m52 54h9v2h-9z" fill="#143441"/><g fill="#7fcac9"><path d="m7 24h2v2h-2z"/><path d="m55 18h2v2h-2z"/><path d="m53 14h2v2h-2z"/><path d="m52 10h2v2h-2z"/><path d="m50 6h2v2h-2z"/><path d="m8 28h2v2h-2z"/><path d="m10 32h2v2h-2z"/><path d="m13 35h2v2h-2z"/></g><path d="m51 22a19.031 19.031 0 0 1 -18 18.98c-.33.01-.67.02-1 .02a19.024 19.024 0 0 1 -18.85-16.63 18.5 18.5 0 0 1 -.15-2.37 19 19 0 0 1 38 0z" fill="#32b1cc"/><path d="m25 20h3l-2 4-2 2-4-2-4-1-1 1-1.85.37a18.5 18.5 0 0 1 -.15-2.37 18.868 18.868 0 0 1 5.41-13.26l1.59.26 5-1h2l2 1-3 2-4 1-3 3 2 2 3 1z" fill="#c8d952"/><path d="m46.85 33.84.15-10.84-6-2 3-3 2-3h-4l-5 4-2-2-4-2 4-2 2-3 4 1 3-1 1.63-1.22a18.961 18.961 0 0 1 1.22 25.06z" fill="#c8d952"/><path d="m40 33-3 4-4 2v1.98c-.33.01-.67.02-1 .02a18.934 18.934 0 0 1 -15.06-7.43l2.06-2.57 4 2 5-3h5l1 2 4-2z" fill="#c8d952"/></svg>